<svg width="150" height="40" viewBox="0 0 150 40" fill="none" xmlns="http://www.w3.org/2000/svg">
<path d="M20.9932 12.592L12.4139 12.592L12.4139 18.4699H20.2214V21.5869H12.4139L12.4139 30.1662H9L9 9.38592L20.9932 9.38592V12.592Z" fill="#121212"/>
<path d="M34.0702 30.5522C30.9235 30.5522 28.3111 29.5329 26.2331 27.4945C24.155 25.4362 23.116 22.8634 23.116 19.7761C23.116 16.6887 24.155 14.1258 26.2331 12.0874C28.3111 10.0291 30.9235 9 34.0702 9C37.2169 9 39.8293 10.0291 41.9074 12.0874C43.9854 14.1258 45.0244 16.6887 45.0244 19.7761C45.0244 21.7947 44.5494 23.6353 43.5995 25.2977C42.6693 26.9403 41.3631 28.2267 39.6809 29.1569C38.0185 30.0871 36.1482 30.5522 34.0702 30.5522ZM28.7267 25.1493C30.1516 26.5742 31.9328 27.2867 34.0702 27.2867C36.2274 27.2867 38.0086 26.5742 39.4137 25.1493C40.8386 23.7045 41.5511 21.9135 41.5511 19.7761C41.5511 17.6387 40.8386 15.8575 39.4137 14.4326C38.0086 12.9878 36.2274 12.2655 34.0702 12.2655C31.9328 12.2655 30.1516 12.9878 28.7267 14.4326C27.3018 15.8575 26.5893 17.6387 26.5893 19.7761C26.5893 21.9135 27.3018 23.7045 28.7267 25.1493Z" fill="#121212"/>
<path d="M60.7929 30.1662L56.3399 22.4775H52.3917V30.1662H48.9778V9.38592H57.0821C58.3883 9.38592 59.5757 9.66299 60.6444 10.2171C61.7131 10.7713 62.5443 11.553 63.1381 12.5623C63.7516 13.5717 64.0583 14.6997 64.0583 15.9466C64.0583 17.3517 63.6724 18.5985 62.9006 19.687C62.1287 20.7557 61.0996 21.5276 59.8132 22.0025L64.6224 30.1662L60.7929 30.1662ZM48.9778 12.592V19.2714H56.8743C57.4284 19.2714 57.9331 19.1922 58.3883 19.0339C58.8633 18.8756 59.2591 18.648 59.5757 18.3511C59.8924 18.0543 60.1398 17.698 60.3179 17.2824C60.496 16.8668 60.5851 16.4116 60.5851 15.9169C60.5851 14.9471 60.2387 14.1555 59.546 13.542C58.8732 12.9087 57.9826 12.592 56.8743 12.592H48.9778Z" fill="#121212"/>
<path d="M81.5627 9.38592V12.5623H75.4474V30.1662H72.0632V12.5623L65.9478 12.5623V9.38592L81.5627 9.38592Z" fill="#121212"/>
<path d="M88.2528 26.9304H97.2477V30.1662L84.8389 30.1662V9.38592L96.9212 9.38592V12.592L88.2528 12.592V17.9949H96.1493V21.1416H88.2528V26.9304Z" fill="#121212"/>
<path d="M110.338 30.5225C107.27 30.5225 104.717 29.5131 102.679 27.4945C100.66 25.456 99.6507 22.8832 99.6507 19.7761C99.6507 16.6689 100.66 14.106 102.679 12.0874C104.717 10.0489 107.27 9.02969 110.338 9.02969C111.961 9.02969 113.465 9.34634 114.85 9.97965C116.235 10.6129 117.393 11.5134 118.323 12.6811C119.273 13.8487 119.926 15.2044 120.283 16.7481H116.839C116.344 15.3627 115.523 14.2841 114.375 13.5123C113.227 12.7207 111.881 12.3249 110.338 12.3249C108.26 12.3249 106.538 13.0274 105.172 14.4326C103.807 15.8377 103.124 17.6288 103.124 19.8058C103.124 21.963 103.807 23.7441 105.172 25.1493C106.538 26.5346 108.26 27.2273 110.338 27.2273C111.921 27.2273 113.296 26.8117 114.464 25.9805C115.632 25.1295 116.443 23.9717 116.898 22.5072H120.372C119.837 24.9415 118.66 26.8909 116.839 28.3554C115.018 29.8001 112.851 30.5225 110.338 30.5225Z" fill="#121212"/>
<path d="M136.889 9.38592H140.303V30.1662H136.889V21.112H127.39V30.1662H123.976V9.38592L127.39 9.38592V17.8762H136.889V9.38592Z" fill="#121212"/>
<path d="M148.75 38.75H1.25V1.25H148.75V38.75Z" stroke="#121212" stroke-width="2.5"/>
</svg>
